<svg xmlns="http://www.w3.org/2000/svg" viewBox="0 0 500 500" width="500" height="500">
    <rect x="57.312" y="57.312" width="290.568" height="290.568"
        style="fill:#f05033;transform-box:fill-box;transform-origin:50% 50%"
        transform="rotate(45 -33.52 80.924)" rx="25.628" ry="25.628" />
    <path
        d="m240.416 261.773-6.149.132a59 59 0 0 1 .528-8.018 48 48 0 0 1 1.141-5.719 35.6 35.6 0 0 1 2.539-6.798 29.5 29.5 0 0 1 2.497-4.127 23.2 23.2 0 0 1 8.407-7.195 23.3 23.3 0 0 1 6.934-2.193 31 31 0 0 1 4.774-.359 28.5 28.5 0 0 1 5.608.535q1.676.336 3.289.906a17.14 17.14 0 0 1 6.998 4.642 18.6 18.6 0 0 1 2.689 3.854 26 26 0 0 1 1.688 3.987q.104.315.203.632 1.635 5.264 1.635 12.984v44.546h-22.11v-44.546a31 31 0 0 0-.08-2.298q-.205-2.718-.934-4.342a7.2 7.2 0 0 0-.905-1.516 5.1 5.1 0 0 0-2.006-1.558q-1.783-.767-4.199-.815l-.314-.002a13 13 0 0 0-2.672.268 9.7 9.7 0 0 0-2.758 1.039 11.3 11.3 0 0 0-3.73 3.487l-.096.144a15.3 15.3 0 0 0-1.651 3.355q-.366 1.036-.606 2.107a28 28 0 0 0-.616 4.127 34 34 0 0 0-.104 2.741m-40.424 0-5.038.132a55 55 0 0 1 .623-8.441 45 45 0 0 1 1.143-5.296 35.6 35.6 0 0 1 2.697-6.882 29.4 29.4 0 0 1 2.536-4.043q3.466-4.643 8.536-7.195a23.6 23.6 0 0 1 7.154-2.222 31 31 0 0 1 4.588-.33 27 27 0 0 1 4.956.447 21.6 21.6 0 0 1 3.483.96 16.7 16.7 0 0 1 6.541 4.383 17.4 17.4 0 0 1 2.688 3.907 24.3 24.3 0 0 1 1.531 3.81 31 31 0 0 1 1.007 4.508q.347 2.338.436 5.008.03.918.029 1.835v47.228h-22.043v-44.414a33 33 0 0 0-.081-2.364q-.173-2.328-.705-3.858-.105-.295-.228-.582a7.4 7.4 0 0 0-.865-1.479 5 5 0 0 0-2.047-1.596 9.5 9.5 0 0 0-1.894-.55 14 14 0 0 0-1.993-.22 21 21 0 0 0-.757-.014 10.9 10.9 0 0 0-3.211.46 9.7 9.7 0 0 0-1.957.847q-2.29 1.31-3.893 3.631a16 16 0 0 0-1.765 3.4 20 20 0 0 0-.654 2.062 25.3 25.3 0 0 0-.704 4.155 30 30 0 0 0-.113 2.713M338.8 299.582l-2.29-16.222v-84.253h22.175v100.475zm-45.725-34.537v-1.375c-.007-2.801.169-5.6.527-8.38a50 50 0 0 1 1.239-6.306 38.7 38.7 0 0 1 2.356-6.537 30.6 30.6 0 0 1 2.878-4.909q3.464-4.808 8.633-7.424a24.1 24.1 0 0 1 7.459-2.308 31 31 0 0 1 4.448-.31 22.2 22.2 0 0 1 5.641.695 18.1 18.1 0 0 1 4.889 2.086 23.5 23.5 0 0 1 6.144 5.542 28 28 0 0 1 1.576 2.209 42 42 0 0 1 3.39 6.491 54 54 0 0 1 1.843 5.121q2.027 6.64 3.074 14.293v1.634a87 87 0 0 1-2.234 10.744 86 86 0 0 1-.84 2.83 50 50 0 0 1-2.823 7.053 42 42 0 0 1-2.41 4.231q-3.207 4.905-7.753 7.685a18.9 18.9 0 0 1-7.506 2.584q-1.555.201-3.123.198a28.8 28.8 0 0 1-6.335-.671 22.7 22.7 0 0 1-5.537-2.012q-5.137-2.68-8.57-7.523a33.2 33.2 0 0 1-3.897-7.366 41 41 0 0 1-1.303-4.016 51 51 0 0 1-1.557-9.093 62 62 0 0 1-.209-5.166m-91.776-36.24 1.373 14.98v55.797h-22.044v-70.777zm113.82 34.865v1.375q0 3.99.523 7.391a24 24 0 0 0 .712 3.197c.284.958.647 1.891 1.087 2.788.423.873.96 1.688 1.595 2.423a9.4 9.4 0 0 0 1.806 1.6q2.126 1.44 5.266 1.439 4.233.001 7.005-2.008l.027-.019a11.1 11.1 0 0 0 3.281-3.844 15 15 0 0 0 .84-1.913c.428-1.21.736-2.463.914-3.737a26 26 0 0 0 .257-3.763q0-.631-.026-1.265v-5.169q.129-4.315-.588-7.62-.72-3.303-2.257-5.527-1.54-2.222-3.86-3.369-2.322-1.143-5.461-1.144a10.7 10.7 0 0 0-2.469.265 8.1 8.1 0 0 0-2.732 1.173 9.9 9.9 0 0 0-2.729 2.803 12 12 0 0 0-.705 1.22 18.3 18.3 0 0 0-1.188 3.004 26 26 0 0 0-.71 3.08q-.588 3.5-.588 7.62m-173.804 25.576q0-4.707 3.401-7.882a11.66 11.66 0 0 1 6.359-2.998 16 16 0 0 1 2.406-.174c1.325-.01 2.645.153 3.927.485a11.3 11.3 0 0 1 4.872 2.687 10.34 10.34 0 0 1 3.363 7.517l.006.365a10.8 10.8 0 0 1-.98 4.633 10.7 10.7 0 0 1-2.389 3.25 11.46 11.46 0 0 1-6.06 2.949 16 16 0 0 1-2.739.224 14.7 14.7 0 0 1-4.034-.524 11.4 11.4 0 0 1-4.731-2.649 10.3 10.3 0 0 1-3.395-7.444 16 16 0 0 1-.006-.439"
        font-size="12" style="fill:#fff" />
</svg>